<svg width="538.812012" height="357.911621" viewBox="0 0 538.812 357.912" fill="none" xmlns="http://www.w3.org/2000/svg" xmlns:xlink="http://www.w3.org/1999/xlink">
	<desc>
			Created with Pixso.
	</desc>
	<defs/>
	<path id="Base" d="M537.054 348.168L497.019 348.168C496.082 348.168 495.261 347.494 495.261 346.684L495.261 346.144C495.261 345.333 496.042 344.659 497.019 344.659L537.054 344.659C537.992 344.659 538.812 345.333 538.812 346.144L538.812 346.684C538.812 347.494 538.031 348.168 537.054 348.168ZM438.04 344.659C439.011 344.659 439.798 345.444 439.798 346.414C439.798 347.383 439.011 348.168 438.04 348.168L374.374 348.168C373.404 348.168 372.617 347.383 372.617 346.414C372.617 345.444 373.404 344.659 374.374 344.659L438.04 344.659Z" fill="#DE3190" fill-opacity="1.000000" fill-rule="nonzero"/>
	<path id="Shoes" d="M438.234 344.669C438.172 344.662 438.109 344.659 438.045 344.659L374.651 344.659C374.609 344.445 374.588 344.176 374.594 343.828C374.638 343.555 374.643 343.243 374.727 342.933C375.228 341.069 375.836 339.832 377.613 338.731C379.39 337.631 381.204 336.649 383.094 335.785C390.066 332.513 392.448 332.554 397.032 329.552C398.929 328.298 400.673 326.847 402.302 325.275C403.389 324.229 405.606 322.527 408.955 320.171L438.234 320.845L438.234 344.669ZM537.202 344.664C537.155 344.661 537.107 344.659 537.059 344.659L497.157 344.659L500.693 322.579L526.942 319.58L537.202 344.664Z" fill="#474961" fill-opacity="1.000000" fill-rule="nonzero"/>
	<path id="Legs" d="M450.158 105.048C451.494 103.543 452.987 102.153 454.63 100.902C459.404 99.1113 468.513 97.2178 475.013 99.2852C482.614 101.703 487.306 108.314 487.306 108.314C487.306 108.314 488.42 107.156 500.047 139.58C507.798 161.196 515.319 190.488 522.611 227.455C523.309 231.594 527.337 254.941 534.696 297.497C534.702 297.532 534.708 297.567 534.713 297.602C535.022 299.733 533.542 301.711 531.407 302.02L490.696 307.905C488.736 308.189 486.874 306.963 486.363 305.053C481.285 286.094 478.54 275.73 478.126 273.962C477.237 270.432 476.362 266.434 475.457 261.854L468.333 227.468C468.263 227.134 468.128 226.053 467.928 224.223C464.604 212.053 461.762 201.648 459.402 193.006C457.505 200.279 455.452 208.077 453.244 216.401C452.171 263.073 451.37 289.615 450.839 296.025C450.757 297.016 450.497 300.666 450.058 306.974C449.911 309.092 448.094 310.703 445.97 310.6L404 308.547C402.003 308.45 400.402 306.861 400.292 304.867C398.436 271.237 399.664 239.602 403.977 209.962C410.67 163.958 420.786 145.16 426.819 127.464C426.886 127.253 431.672 119.686 441.178 104.76C444.482 104.779 447.475 104.875 450.158 105.048Z" fill="#FFCB3D" fill-opacity="1.000000" fill-rule="nonzero"/>
	<g opacity="0.200000">
		<path id="Shadow Legs" d="M444.329 115.058C442.115 121.062 441.737 127.729 443.495 134.177C445.957 143.21 448.419 152.243 450.882 161.275C450.882 161.275 453.739 171.739 459.455 192.667C457.544 200.037 455.473 207.948 453.243 216.4C452.143 262.926 451.327 289.395 450.797 295.805C450.436 300.167 450.166 303.873 449.986 306.923C449.86 309.061 448.032 310.697 445.89 310.589L403.882 308.47C401.884 308.369 400.285 306.776 400.179 304.781C398.398 271.206 399.664 239.599 403.977 209.961C410.67 163.958 420.665 145.076 426.698 127.381C426.753 127.21 435.374 120.69 444.329 115.058Z" fill="#8C2A00" fill-opacity="1.000000" fill-rule="nonzero"/>
	</g>
	<path id="T shirt" d="M440.914 41.356C441.758 41.0454 442.596 40.7827 443.411 40.5605L443.249 37.6353C443.225 37.2095 443.548 36.8438 443.974 36.814L462.298 35.5405C462.729 35.5112 463.102 35.835 463.132 36.2642L463.249 37.916C473.244 36.6968 479.079 36.418 480.754 37.0806C496.288 43.2256 498.857 69.9053 498.775 78.0215C498.753 80.1982 495.27 82.1519 488.325 83.8823C489.082 91.2598 489.527 95.4277 489.784 97.5928C489.784 97.5928 489.781 97.9761 489.867 98.543C490.088 100.209 437.313 116.521 437.313 116.521C437.273 116.486 437.236 116.489 437.236 116.489C437.236 116.489 436.486 116.363 435.56 115.907C435.1 115.717 434.634 115.452 434.157 115.071C430.628 112.314 430.059 105.43 429.985 103.751C429.938 103.219 429.901 102.801 429.901 102.801C429.756 100.296 429.402 95.2246 428.701 85.7637C426.198 86.8408 423.47 87.9365 420.516 89.0498L420.625 50.1289C420.633 47.3457 422.287 44.8301 424.841 43.7158C430.526 41.2354 435.884 40.4487 440.914 41.356Z" fill="#DE3190" fill-opacity="1.000000" fill-rule="nonzero"/>
	<path id="Skin" d="M438.132 321.019L431.179 320.859L408.955 320.171L410.094 308.744L438.427 310.119L438.132 321.019ZM497.038 306.906L524.67 302.921L526.942 319.58L500.694 322.579L497.038 306.906ZM461.729 21.21L461.729 35.6265L446.6 36.6577L446.812 33.5142C444.651 34.0645 444.775 34 444.567 34.0454C442.055 34.4062 439.966 34.1108 439.585 33.9932C438.199 33.7324 436.845 32.4243 435.733 30.3247C434.224 27.5225 433.064 23.2783 432.728 18.3027C432.646 17.5942 432.68 16.8975 432.715 16.2007L433.291 9.29785C433.415 7.75439 433.928 6.25195 434.852 4.94775C435.228 4.36475 435.592 3.89648 436.025 3.51367C440.698 -1.29004 447.997 0.247559 449.297 0.577637C449.448 0.632324 449.604 0.648438 449.755 0.703125C451.151 1.2373 452.499 1.49463 453.854 1.67432C454.476 1.73926 454.924 2.33057 454.858 2.9458L453.774 12.7915C454.148 12.5972 460.039 10.2539 461.681 11.436C463.035 12.4258 463.611 18.6064 461.729 21.21ZM430.215 108.278L430.615 107.927C430.795 107.927 430.899 107.936 430.933 107.955L463.317 93.3608L463.984 87.479C478.321 85.9297 488.237 84.1011 493.732 81.9937C493.828 97.1206 492.71 105.823 490.38 108.1C485.096 113.261 457.583 126.018 430.04 129.461C423.883 132.186 413.699 134.17 399.489 135.414C395.435 132.825 393.258 128.303 392.956 121.848L402.824 118.459C402.425 118.323 402.22 118.221 402.22 118.221C400.084 113.351 427.134 109.041 430.585 108.111L430.215 108.278ZM422.133 88.1118C408.834 94.2241 387.423 98.8721 381.699 92.2129C374.205 83.4937 373.219 59.7515 378.74 20.9873C366.689 18.3218 358.342 15.4248 353.698 12.2959C352.44 11.4492 351.702 10.0244 351.738 8.51465C351.795 6.0625 353.84 4.12109 356.305 4.17871C368.107 4.45361 375.585 4.43066 378.74 4.11084C378.819 4.10254 378.898 4.09521 378.977 4.08838C388.548 3.24902 396.992 10.2881 397.835 19.8105L401.455 60.6553L420.616 51.4526L420.596 88.6963C421.115 88.501 421.628 88.3062 422.133 88.1118Z" fill="#DB9E75" fill-opacity="1.000000" fill-rule="nonzero"/>
	<g opacity="0.176986">
		<path id="Shadow T shirt" d="M440.618 41.2822C437.11 42.6108 433.532 44.77 431.141 48.2778C430.455 49.2949 429.593 50.8257 429.007 52.9834C428.924 53.2969 428.838 53.5728 428.754 53.8862C428.555 54.5547 428.125 55.9712 427.78 57.4951C427.414 59.2124 427.255 62.4438 427.317 66.9204L427.327 67.0342L427.417 68.9033C427.928 75.6719 428.344 81.2207 428.68 85.7534C426.194 86.8252 423.483 87.9146 420.546 89.0215L420.628 50.1138C420.634 47.3379 422.278 44.8262 424.822 43.7056C430.398 41.25 435.664 40.4419 440.618 41.2822L440.618 41.2822Z" fill="#444444" fill-opacity="1.000000" fill-rule="nonzero"/>
	</g>
	<path id="Shadow" d="M446.818 33.6055L452.81 32.1128L446.6 36.7905L446.818 33.6055Z" fill="#482D1F" fill-opacity="1.000000" fill-rule="nonzero"/>
	<path id="Hair" d="M458.417 22.8179L458.453 22.814C458.983 22.6353 460.532 22.0942 461.567 20.4844C462.601 18.8745 462.958 16.6084 461.864 14.6982C460.805 12.8306 458.576 11.6221 456.646 12.0449C455.561 12.2827 454.776 13.0205 454.69 13.0898C453.502 14.293 453.123 15.6592 453.123 15.6592L452.925 16.5972C452.711 16.2788 452.513 15.9634 452.337 15.6553C449.886 12.4707 447.438 9.24805 444.99 6.0249C443.392 6.28711 440.861 6.45215 438.052 5.53418C437.066 5.19678 436.23 4.56299 435.49 4.13428C435.712 3.88428 435.931 3.67285 436.115 3.41895C439.543 -0.400391 445.854 -0.287598 448.696 0.321777C449.042 0.396484 450.268 0.681152 452.043 0.983398C453.006 1.16211 453.783 1.24365 454.245 1.33057C460.008 2.16699 462.373 1.71143 465.124 3.56055C465.639 3.8877 466.808 4.71289 467.753 6.17773C470.417 10.3213 469.157 15.187 468.808 16.6343C467.643 20.9634 464.913 23.1465 464.018 24.1855C462.223 26.3013 459.892 24.1855 459.892 24.1855C459.892 24.1855 459.294 23.6592 458.417 22.8179Z" fill="#482D1F" fill-opacity="1.000000" fill-rule="nonzero"/>
	<path id="Fingers" d="M408.162 123.378C408.476 123.3 408.794 123.492 408.872 123.806C408.949 124.119 408.758 124.437 408.443 124.514C406.472 125 404.927 125.33 401.48 126.026C398.048 126.719 396.515 127.046 394.565 127.528C394.251 127.605 393.933 127.414 393.855 127.1C393.778 126.787 393.97 126.469 394.284 126.392C396.255 125.905 397.8 125.576 401.247 124.879C404.679 124.187 406.212 123.859 408.162 123.378ZM412.668 129.195C412.986 129.137 413.291 129.348 413.349 129.666C413.407 129.983 413.197 130.288 412.878 130.346C410.699 130.744 409.016 131.089 405.276 131.889C401.523 132.691 399.833 133.039 397.638 133.439C397.32 133.497 397.015 133.287 396.957 132.969C396.898 132.651 397.109 132.346 397.427 132.288C399.607 131.891 401.29 131.545 405.03 130.745C408.782 129.943 410.473 129.595 412.668 129.195Z" fill="#482D1F" fill-opacity="1.000000" fill-rule="nonzero"/>
	<path id="Eyes" d="M435.055 16.5181C435.055 17.188 435.089 18.3374 434.725 18.8257C434.16 19.5547 432.996 17.6157 433.349 16.2979C433.559 15.7827 433.831 15.5938 434.146 15.6094C434.621 15.6138 435.021 16.0386 435.055 16.5181ZM443.454 16.959C443.492 17.6357 443.527 18.7852 443.124 19.2666C442.558 19.9956 441.395 18.0566 441.748 16.7388C441.958 16.2236 442.23 16.0347 442.544 16.0503C443.019 16.0547 443.42 16.48 443.454 16.959Z" fill="#482D1F" fill-opacity="1.000000" fill-rule="nonzero"/>
	<path id="Nose" d="M438.503 17.2993L437.787 21.1167C437.784 21.1294 437.832 21.1968 437.85 21.2002C438.061 21.2373 438.279 21.2612 438.62 21.2876C438.686 21.293 438.756 21.2979 438.855 21.3052C438.981 21.3145 439.05 21.3193 439.116 21.3242C439.342 21.3408 439.529 21.356 439.729 21.373C439.944 21.3921 440.103 21.5811 440.084 21.7959C440.065 22.0103 439.876 22.1689 439.661 22.1504C439.465 22.1333 439.281 22.1187 439.059 22.1021C438.993 22.0972 438.925 22.0923 438.799 22.083C438.698 22.0757 438.627 22.0708 438.559 22.0654C438.195 22.0371 437.956 22.0107 437.715 21.9683C437.272 21.8906 436.94 21.4185 437.018 20.9766L437.736 17.1558C437.775 16.9438 437.979 16.8047 438.191 16.8442C438.404 16.8838 438.543 17.0879 438.503 17.2993Z" fill="#482D1F" fill-opacity="1.000000" fill-rule="nonzero"/>
	<path id="Glasses" d="M450.476 17.0371C450.509 17.4814 450.487 17.937 450.405 18.396C449.873 21.396 446.997 23.3984 443.981 22.8701C441.444 22.4253 439.616 20.3315 439.415 17.8921L438.136 17.8013C437.596 20.792 434.725 22.7852 431.715 22.2578C428.698 21.729 426.683 18.8677 427.216 15.8667C427.748 12.8667 430.625 10.8643 433.64 11.3926C436.268 11.8535 438.136 14.0835 438.222 16.6343L439.444 16.7217C439.455 16.6406 439.467 16.5601 439.481 16.479C440.014 13.479 442.89 11.4766 445.906 12.0049C448.052 12.3813 449.691 13.9375 450.267 15.8853L452.886 15.5117C453.206 15.4658 453.503 15.688 453.549 16.0078C453.594 16.3276 453.372 16.624 453.052 16.6699L450.476 17.0371ZM437.048 17.019C437.148 14.8696 435.628 12.9292 433.438 12.5449C431.058 12.1279 428.789 13.707 428.369 16.0708C427.95 18.4341 429.538 20.688 431.917 21.1055C434.298 21.5225 436.567 19.9434 436.986 17.5796C437.005 17.4702 437.02 17.3608 437.031 17.2524C437.026 17.2144 437.025 17.1758 437.028 17.1362C437.031 17.0957 437.038 17.0566 437.048 17.019ZM449.251 18.1919C449.671 15.8286 448.083 13.5747 445.703 13.1572C443.323 12.7402 441.054 14.3193 440.635 16.6831C440.216 19.0464 441.804 21.3003 444.183 21.7178C446.563 22.1348 448.832 20.5557 449.251 18.1919Z" fill="#482D1F" fill-opacity="1.000000" fill-rule="nonzero"/>
	<path id="Mouth" d="M440.01 24.4585C440.299 24.3906 441.007 24.1997 441.114 23.8237C441.127 23.7476 441.186 23.6392 441.116 23.5879C440.957 23.3628 440.462 23.4731 439.736 23.543C438.45 23.6328 437.437 23.5342 437.437 23.5342C437.437 23.5342 437.713 24.2134 437.917 24.4067C438.303 24.9082 439.591 24.582 440.01 24.4585Z" fill="#482D1F" fill-opacity="1.000000" fill-rule="nonzero"/>
	<path id="Shadow" d="M464.814 87.4277C464.731 83.9937 464.667 80.9893 464.622 78.4155C464.576 75.8408 464.512 71.6128 464.43 65.7305C464.426 65.4077 464.159 65.1494 463.836 65.1538C463.512 65.1582 463.254 65.4238 463.258 65.7471C463.341 71.6304 463.405 75.8599 463.45 78.436C463.496 81.0127 463.56 84.019 463.642 87.4556C463.65 87.7788 463.919 88.0342 464.242 88.0269C464.565 88.019 464.822 87.751 464.814 87.4277Z" fill="#482D1F" fill-opacity="1.000000" fill-rule="nonzero"/>
	<path id="Base" d="M213.931 356.048L213.935 356.282C213.91 357.179 213.139 357.895 212.192 357.911L146.507 357.808C145.559 357.785 144.804 357.058 144.789 356.161L144.784 355.927C144.81 355.029 145.58 354.313 146.528 354.297L212.172 354.401C213.16 354.384 213.915 355.112 213.931 356.048ZM39.1545 357.522L39.0588 357.542L0.633301 327.555C-0.0695801 327.009 -0.22583 325.956 0.359863 325.293L0.477051 325.098C0.828613 324.669 1.37549 324.435 1.92236 324.474C2.23486 324.474 2.5083 324.591 2.78149 324.786L41.0281 354.307L61.9583 354.354C62.8564 354.338 63.5723 355.066 63.627 355.963L63.6311 356.197C63.6077 357.094 62.8779 357.809 61.9797 357.825L39.0867 357.755C39.1094 357.678 39.1321 357.6 39.1545 357.522Z" fill="#FF5645" fill-opacity="1.000000" fill-rule="nonzero"/>
	<path id="Shoes" d="M213.422 354.872C213.107 354.572 212.669 354.392 212.172 354.401L146.528 354.297C146.423 354.299 146.321 354.309 146.222 354.327L148.857 330.068L178.857 329.982C182.466 332.337 184.814 334.039 185.9 335.086C187.529 336.657 189.273 338.109 191.17 339.363C195.754 342.365 198.136 342.323 205.108 345.595C206.998 346.459 208.812 347.442 210.59 348.542C212.367 349.642 212.974 350.88 213.476 352.743C213.559 353.054 213.565 353.366 213.608 353.638C213.619 354.253 213.545 354.621 213.422 354.872ZM2.77881 324.784L16.4182 306.12L39.9316 323.942L40.6348 326.283C43.3689 335.851 44.853 340.895 45.0874 341.415C45.3694 342.023 45.6616 342.585 45.9688 343.133C48.0925 343.997 50.5039 344.84 54.1882 346.68C56.063 347.577 57.8596 348.591 59.6172 349.722C61.375 350.853 61.9609 352.101 62.4294 353.973C62.469 354.13 62.4885 354.287 62.5032 354.439C62.3328 354.38 62.1497 354.35 61.958 354.354L41.0281 354.307L2.78149 324.786C2.78076 324.785 2.77979 324.785 2.77881 324.784Z" fill="#474961" fill-opacity="1.000000" fill-rule="nonzero"/>
	<path id="Legs" d="M117.867 136.286C117.984 136.302 118.101 136.321 118.218 136.343C119.348 136.556 120.403 137.059 121.281 137.802C155.088 166.448 175.083 190.141 181.266 208.882C184.772 219.51 187.867 246.855 190.551 290.918C191.049 299.087 184.819 306.113 176.637 306.61C176.465 306.621 176.292 306.628 176.12 306.633L151.502 307.269C143.433 307.477 136.677 301.208 136.292 293.159L133.01 224.373C127.615 218.676 122.913 213.659 118.905 209.32C117.943 214.555 116.459 220.081 114.062 227.475C110.065 239.796 93.7847 264.148 65.22 300.53L64.1221 301.99C59.4695 308.18 50.8306 309.752 44.2893 305.601L25.9192 293.942C19.0015 289.551 16.958 280.392 21.3552 273.485C21.5381 273.197 21.731 272.917 21.9331 272.643L62.844 217.214C63.8191 195.239 65.7495 176.014 68.6357 159.54C72.9646 134.828 105.37 135.361 117.634 135.768C117.713 135.938 117.791 136.11 117.867 136.286Z" fill="#3ABF7C" fill-opacity="1.000000" fill-rule="nonzero"/>
	<g opacity="0.176986">
		<path id="Shadow Legs" d="M117.842 136.281C117.967 136.298 118.093 136.317 118.218 136.341C119.348 136.555 120.404 137.058 121.281 137.801C155.089 166.446 175.084 190.14 181.266 208.88C184.772 219.508 187.867 246.854 190.552 290.916C191.049 299.086 184.82 306.112 176.638 306.608C176.465 306.619 176.293 306.626 176.12 306.631L151.502 307.267C143.433 307.475 136.677 301.207 136.293 293.157L133.011 224.371C127.618 218.678 122.919 213.664 118.913 209.326C120.684 199.658 120.676 190.971 121.364 173.329C122.055 155.583 120.881 143.234 117.842 136.281Z" fill="#444444" fill-opacity="1.000000" fill-rule="nonzero"/>
	</g>
	<path id="Background" d="M141.129 44.7534L385.041 27.7231L396.021 184.51C396.323 188.808 393.077 192.535 388.774 192.835L160.447 208.777C156.143 209.078 152.41 205.838 152.109 201.541L141.129 44.7534Z" fill="#F2F6FB" fill-opacity="1.000000" fill-rule="nonzero"/>
	<path id="Combined Shape" d="M154.198 61.1025L161.509 60.5918C161.939 60.562 162.312 60.8857 162.343 61.3154L162.544 64.1924C162.574 64.6221 162.25 64.9946 161.819 65.0249L154.508 65.5352C154.078 65.5654 153.705 65.2412 153.674 64.8115L153.473 61.9351C153.443 61.5049 153.767 61.1323 154.198 61.1025ZM342.676 47.9424L374.378 45.729C374.808 45.6987 375.182 46.0229 375.212 46.4526L375.413 49.3291C375.443 49.7593 375.119 50.1318 374.688 50.1616L342.986 52.3755C342.556 52.4053 342.182 52.0815 342.152 51.6519L341.951 48.7749C341.921 48.3452 342.245 47.9727 342.676 47.9424ZM282.806 52.1226L314.509 49.9092C314.939 49.8789 315.312 50.2031 315.342 50.6328L315.544 53.5093C315.574 53.9395 315.249 54.312 314.819 54.3418L283.117 56.5557C282.686 56.5854 282.313 56.2617 282.283 55.832L282.082 52.9551C282.051 52.5254 282.376 52.1528 282.806 52.1226ZM320.502 49.4907L336.682 48.3608C337.113 48.3311 337.486 48.6548 337.516 49.0845L337.718 51.9614C337.748 52.3911 337.423 52.7637 336.993 52.7939L320.812 53.9233C320.382 53.9536 320.009 53.6294 319.979 53.1997L319.777 50.3232C319.747 49.8936 320.071 49.521 320.502 49.4907Z" fill="#D8DEED" fill-opacity="1.000000" fill-rule="nonzero"/>
	<path id="Body" d="M173.862 77.5415L226.904 73.8428C228.324 73.7437 229.556 74.813 229.655 76.231L237.04 181.545C237.139 182.963 236.069 184.193 234.649 184.292L181.606 187.991C180.187 188.09 178.955 187.021 178.855 185.602L171.471 80.2886C171.371 78.8706 172.442 77.6406 173.862 77.5415Z" fill="#D8DEED" fill-opacity="1.000000" fill-rule="evenodd"/>
	<path id="Button" d="M212.061 178.146C212.217 180.368 210.506 182.297 208.24 182.456C205.974 182.614 204.011 180.94 203.855 178.718C203.699 176.497 205.41 174.567 207.676 174.409C209.942 174.251 211.905 175.924 212.061 178.146Z" fill="#F2F6FB" fill-opacity="1.000000" fill-rule="evenodd"/>
	<path id="Mic" d="M198.217 82.4609L204.227 82.042C204.833 81.9995 205.36 82.4565 205.402 83.0625C205.445 83.6689 204.987 84.1943 204.381 84.2368L198.371 84.6558C197.764 84.6982 197.238 84.2412 197.196 83.6353C197.153 83.0288 197.611 82.5034 198.217 82.4609Z" fill="#F2F6FB" fill-opacity="1.000000" fill-rule="evenodd"/>
	<path id="Screen" d="M176.638 89.8433L225.872 86.4102L231.822 171.259L182.588 174.692L176.638 89.8433Z" fill="#F2F6FB" fill-opacity="1.000000" fill-rule="evenodd"/>
	<path id="Mountains" d="M205.942 138.557L194.436 139.36C194.152 139.379 194.035 139.194 194.173 138.947L201.196 126.365C201.334 126.118 201.589 126.095 201.768 126.318L208.017 134.18L210.147 130.34C210.284 130.092 210.544 130.063 210.732 130.282L216.845 137.38C217.031 137.596 216.954 137.789 216.669 137.811L211.695 138.205L205.942 138.557ZM210.207 127.546C209.195 127.617 208.319 126.886 208.251 125.914C208.183 124.941 208.948 124.096 209.96 124.025C210.972 123.955 211.847 124.686 211.916 125.658C211.984 126.63 211.219 127.476 210.207 127.546Z" fill="#D8DEED" fill-opacity="1.000000" fill-rule="nonzero"/>
	<path id="Text" d="M255.1 101.943L355.541 94.9297C355.972 94.8994 356.345 95.2236 356.375 95.6533L356.887 102.963C356.917 103.393 356.593 103.765 356.162 103.795L255.721 110.808C255.291 110.838 254.917 110.514 254.887 110.084L254.375 102.775C254.345 102.345 254.67 101.973 255.1 101.943ZM256.109 116.349L317.746 112.046C318.176 112.016 318.55 112.34 318.58 112.77L319.092 120.079C319.122 120.509 318.797 120.881 318.367 120.911L256.73 125.215C256.3 125.245 255.926 124.921 255.896 124.491L255.384 117.182C255.354 116.752 255.679 116.379 256.109 116.349ZM257.118 130.756L342.038 124.827C342.468 124.797 342.841 125.121 342.871 125.55L343.383 132.86C343.413 133.29 343.089 133.662 342.658 133.692L257.739 139.622C257.308 139.652 256.935 139.328 256.905 138.898L256.393 131.588C256.363 131.159 256.688 130.786 257.118 130.756Z" fill="#E1E5F0" fill-opacity="1.000000" fill-rule="nonzero"/>
	<path id="Title" d="M254.091 87.5361L336.793 81.7617C337.224 81.7314 337.597 82.0557 337.627 82.4854L338.139 89.7944C338.169 90.2246 337.844 90.5972 337.414 90.627L254.712 96.4014C254.281 96.4316 253.908 96.1074 253.878 95.6777L253.366 88.3687C253.336 87.9385 253.661 87.5659 254.091 87.5361Z" fill="#D8DEED" fill-opacity="1.000000" fill-rule="evenodd"/>
	<path id="Button" d="M265.344 153.567L306.027 150.727C308.493 150.555 309.48 150.758 310.468 151.2C311.456 151.642 312.256 152.336 312.832 153.252C313.408 154.167 313.747 155.115 313.919 157.577L314.129 160.579C314.302 163.04 314.098 164.026 313.655 165.012C313.212 165.999 312.517 166.797 311.6 167.373C310.684 167.948 309.735 168.286 307.269 168.458L266.586 171.299C264.121 171.471 263.134 171.268 262.146 170.826C261.157 170.383 260.358 169.689 259.782 168.774C259.206 167.858 258.867 166.911 258.695 164.449L258.484 161.447C258.312 158.985 258.515 158 258.958 157.014C259.401 156.027 260.096 155.229 261.013 154.653C261.93 154.078 262.879 153.74 265.344 153.567Z" fill="#474BFF" fill-opacity="1.000000" fill-rule="nonzero"/>
	<path id="Top bar" d="M140.393 34.2495C140.092 29.9521 143.337 26.2246 147.645 25.9238L375.964 9.98242C380.27 9.68164 384.005 12.9233 384.306 17.2192L385.096 28.5015L141.183 45.5317L140.393 34.2495Z" fill="#E1E5F0" fill-opacity="1.000000" fill-rule="nonzero"/>
	<path id="Burron" d="M157.297 35.2192C157.455 37.4756 155.751 39.4321 153.492 39.5898C151.232 39.7476 149.273 38.0469 149.115 35.7905C148.957 33.5347 150.66 31.5776 152.92 31.4199C155.179 31.2622 157.139 32.9634 157.297 35.2192Z" fill="#FF5645" fill-opacity="1.000000" fill-rule="evenodd"/>
	<path id="Burron" d="M170.935 34.2671C171.093 36.5234 169.389 38.48 167.129 38.6377C164.87 38.7954 162.91 37.0947 162.752 34.8384C162.594 32.5825 164.298 30.6255 166.557 30.4678C168.817 30.3101 170.777 32.0112 170.935 34.2671Z" fill="#FFCB3D" fill-opacity="1.000000" fill-rule="evenodd"/>
	<path id="Burron" d="M184.961 33.2876C185.119 35.5439 183.416 37.5005 181.156 37.6582C178.897 37.8159 176.937 36.1152 176.779 33.8589C176.621 31.603 178.325 29.646 180.584 29.4883C182.844 29.3306 184.803 31.0317 184.961 33.2876Z" fill="#3ABF7C" fill-opacity="1.000000" fill-rule="evenodd"/>
	<path id="T shirt" d="M67.929 105.011L63.6089 105.808C63.4473 105.838 63.283 105.851 63.1187 105.846C61.8247 105.811 60.8047 104.735 60.8403 103.443C61.1858 90.874 62.4548 82.6738 64.647 78.8418C65.2886 77.7197 66.1155 76.8159 67.0715 76.1157C70.9812 72.4106 77.6333 70.3228 85.5669 68.9746L87.7595 68.5884C91.1504 68.0142 94.4172 68.0571 97.45 68.6021C101.234 68.7466 105.893 69.623 110.129 72.4121C110.801 72.8481 112.236 73.7837 113.817 75.3267C113.817 75.3267 116.921 78.3047 120.972 88.4424C121.441 89.6445 122.124 91.6411 123.019 94.4321C123.348 95.458 122.782 96.5557 121.754 96.8838C121.684 96.9062 121.613 96.9248 121.541 96.939L116.629 97.9165L117.923 113.849C117.959 114.278 117.988 114.669 118.063 115.092C118.377 117.096 118.388 119.628 117.094 121.955C115.238 125.371 112.291 130.246 96.8779 132.801C82.5415 135.167 78.3721 131.544 75.5488 129.032C73.5286 127.249 72.6804 124.468 72.3027 122.554C72.2283 122.132 72.1218 121.754 72.0088 121.339L67.929 105.011Z" fill="#FF5645" fill-opacity="1.000000" fill-rule="nonzero"/>
	<g opacity="0.176986">
		<path id="Shadow T shirt" d="M97.3818 68.5957C104.987 69.9424 111.13 74.4414 114.092 80.2729C115.06 82.1616 115.555 84.2925 115.69 86.4067L116.625 97.9165L121.521 96.9648C121.594 96.9507 121.665 96.9326 121.736 96.9102C122.764 96.5859 123.335 95.4907 123.01 94.4639C122.121 91.6528 121.442 89.6455 120.972 88.4424C116.921 78.3047 113.817 75.3267 113.817 75.3267C112.236 73.7837 110.801 72.8481 110.129 72.4116C105.826 69.5791 101.175 68.7192 97.3818 68.5957Z" fill="#444444" fill-opacity="1.000000" fill-rule="nonzero"/>
	</g>
	<path id="Skin" d="M150.283 307.295C150.719 307.322 151.159 307.331 151.604 307.319L176.222 306.684C176.394 306.679 176.567 306.671 176.739 306.661C178.198 306.572 179.595 306.276 180.903 305.803L178.42 330.183L148.857 330.183L150.283 307.295ZM49.2542 307.641L39.9319 323.942L16.4185 306.12L24.8079 293.136C25.1938 293.438 25.5984 293.725 26.0212 293.993L44.3914 305.652C45.9233 306.624 47.5703 307.283 49.2542 307.641ZM136.08 126.498L141.756 127.127C144.175 125.855 166.203 114.443 167.639 119.978C167.639 119.978 167.543 120.18 167.32 120.525L177.577 117.02C183.233 124.925 178.445 137.282 178.369 137.325C165.281 143.059 155.455 146.105 148.892 146.464C148.134 146.505 147.457 146.457 146.86 146.319C146.849 146.391 146.839 146.463 146.829 146.536C126.122 149.016 104.414 148.098 81.7046 143.781C76.2407 142.743 70.1963 130.045 63.5713 105.688C63.6353 105.681 63.6992 105.672 63.7625 105.66L89.2542 100.956C89.4819 100.914 89.696 100.84 89.8926 100.74L96.1731 122.075L115.475 124.214C116.108 123.364 116.568 122.544 116.975 121.795C118.27 119.468 118.259 116.936 117.944 114.932C117.87 114.509 117.84 114.118 117.804 113.689L116.479 97.3691L121.403 96.502C121.507 96.4839 121.61 96.457 121.709 96.4219C121.844 96.375 121.97 96.3149 122.086 96.2437L127.353 107.11C131.725 104.694 144.462 88.8945 144.462 88.8945C144.462 88.8945 145.138 97.8633 146.492 115.801L136.08 126.498ZM94.4233 64.3037L94.8708 68.0112C102.797 68.3345 106.399 71.4111 107.613 72.7529C107.613 72.7529 99.2507 74.2773 82.5254 77.3267C78.0149 73.7158 71.3015 72.8975 67.1309 76.0381C69.4465 73.7983 73.4463 71.8711 79.1301 70.2554C80.6169 69.833 82.0325 69.478 83.3799 69.1836L81.9233 55.3545C81.8386 55.3066 81.7539 55.2559 81.6692 55.2021C80.146 54.1963 78.9963 52.3237 79.2151 50.125C79.3989 48.0977 80.9197 45.3076 82.771 44.9741C83.8098 44.7769 86.71 45.6572 86.5051 44.7427C86.3684 44.1333 85.5686 40.9019 84.1057 35.0483C83.9817 34.4355 84.3408 33.8149 84.9443 33.6533C86.3127 33.3276 87.6663 33.248 89.009 32.5254C89.1599 32.4849 89.3008 32.4072 89.4517 32.3667C90.6938 31.8726 97.6094 29.0132 102.891 33.1719C103.341 33.4956 103.785 33.9424 104.238 34.4268C105.309 35.5532 106.015 36.9795 106.344 38.5063L107.852 45.3301C107.958 46.0288 108.102 46.7168 108.133 47.4351C108.708 56.2046 106.557 62.9575 103.448 64.0312C103.081 64.1699 101.054 64.7529 98.5051 64.7485C98.2585 64.7334 98.4775 64.7959 94.9648 64.3633C94.7793 64.3433 94.5989 64.3232 94.4233 64.3037Z" fill="#F2A98A" fill-opacity="1.000000" fill-rule="nonzero"/>
	<g opacity="0.200000">
		<path id="Shadow Skin" d="M135.782 126.71L146.492 115.856C145.138 97.8818 144.461 88.8945 144.461 88.8945C144.461 88.8945 131.725 104.694 127.353 107.111L122.189 96.5967C122.049 96.6929 121.895 96.7725 121.726 96.8311C121.627 96.8662 121.524 96.8926 121.42 96.9111L116.496 97.7778L117.821 114.098C117.857 114.527 117.887 114.918 117.961 115.341C118.276 117.345 118.287 119.877 116.992 122.204C116.609 122.91 116.179 123.677 115.603 124.474L135.782 126.71Z" fill="#8C2A00" fill-opacity="1.000000" fill-rule="nonzero"/>
	</g>
	<path id="Fingers" d="M165.912 126.822C167.844 126.268 169.337 125.788 172.659 124.679C175.997 123.565 177.501 123.081 179.454 122.521C179.765 122.432 180.09 122.611 180.179 122.922C180.269 123.232 180.089 123.556 179.778 123.646C177.846 124.2 176.353 124.68 173.031 125.789C169.693 126.903 168.189 127.387 166.236 127.947C165.925 128.036 165.6 127.857 165.511 127.546C165.422 127.236 165.601 126.912 165.912 126.822ZM164.891 134.852C166.994 134.105 168.634 133.564 172.288 132.39C175.932 131.22 177.564 130.682 179.652 129.94C179.957 129.832 180.292 129.991 180.4 130.295C180.509 130.6 180.35 130.934 180.045 131.042C177.941 131.789 176.302 132.33 172.647 133.504C169.003 134.674 167.372 135.213 165.283 135.955C164.979 136.063 164.644 135.904 164.535 135.599C164.427 135.295 164.586 134.96 164.891 134.852Z" fill="#482D1F" fill-opacity="1.000000" fill-rule="nonzero"/>
	<path id="Hair" d="M70.4744 45.1396C70.4431 43.6333 70.6863 41.9888 71.4614 40.3696C72.2019 38.7583 73.2749 37.7847 73.7324 37.3799C76.2534 35.1709 78.6814 35.3291 84.3857 33.6816C85.583 33.3208 87.3459 32.8091 89.3982 32.0176C89.5591 32.0146 89.7 31.937 89.8508 31.8965C91.0933 31.4023 97.9065 29.2163 102.911 33.2476C102.931 33.3228 103.686 33.7266 103.679 33.8496C103.679 33.8496 98.4739 45.0527 87.5959 47.3374C87.3049 47.0239 86.5334 46.2822 85.3765 45.812C85.2432 45.7671 84.2991 45.4136 83.2603 45.6108C81.4089 45.9448 79.9067 47.8809 79.7229 49.9087C79.4839 52.0317 80.6233 53.8667 82.1091 54.8823C83.5947 55.8979 85.1948 55.8335 85.7156 55.8149L86.3267 55.6392C86.8542 56.6479 87.2219 57.7354 86.7957 58.5645C85.9724 60.167 84.4397 61.0918 82.1978 61.3394C80.1243 63.96 76.7334 65.7886 72.7993 66.0635C66.0208 66.5366 60.1963 62.2173 59.79 56.416C59.4009 50.8608 64.1213 45.9609 70.4744 45.1396ZM108.353 43.2686C107.667 43.5732 106.49 44.0093 105.333 43.9155C103.531 43.832 104.986 42.4736 106.553 42.1353C107.318 41.9712 107.985 42.1963 108.405 42.4067C108.74 42.6001 108.71 43.0923 108.353 43.2686ZM101.034 45.2271C100.31 45.5415 99.1331 45.9775 97.9377 45.8936C96.1462 45.8481 97.5913 44.4521 99.1584 44.1138C99.9607 43.9395 100.628 44.1646 101.048 44.375C101.421 44.5581 101.391 45.0508 101.034 45.2271Z" fill="#482D1F" fill-opacity="1.000000" fill-rule="nonzero"/>
	<path id="Eyes" d="M106.302 46.9263C106.256 46.4541 106.543 46.0142 106.995 45.8931C107.297 45.812 107.602 45.8921 107.856 46.3892C108.444 47.5244 107.74 49.5698 107.067 49.0229C106.569 48.6719 106.399 47.5869 106.302 46.9263ZM99.5261 48.4971C99.4802 48.0249 99.7666 47.585 100.219 47.4639C100.521 47.3828 100.826 47.4629 101.08 47.96C101.668 49.0947 100.963 51.1406 100.291 50.5938C99.7922 50.2427 99.5847 49.1675 99.5261 48.4971Z" fill="#482D1F" fill-opacity="1.000000" fill-rule="nonzero"/>
	<path id="Mouth" d="M103.454 55.6021C103.17 55.5972 102.468 55.543 102.244 55.1587C102.223 55.0835 102.155 54.9805 102.173 54.895C102.263 54.6284 102.784 54.6104 103.483 54.5039C104.721 54.2939 105.671 53.9185 105.671 53.9185C105.671 53.9185 105.572 54.7529 105.434 54.9917C105.218 55.6953 103.9 55.604 103.454 55.6021Z" fill="#482D1F" fill-opacity="1.000000" fill-rule="nonzero"/>
	<path id="Nose" d="M104.418 47.7378L105.942 51.6211L105.956 51.6621C106.066 52.0732 105.886 52.5308 105.494 52.709C105.421 52.7363 105.379 52.7505 105.338 52.7646C104.946 52.8975 104.66 52.978 103.633 53.2529C103.424 53.3086 103.21 53.1851 103.154 52.9771C103.098 52.769 103.222 52.5552 103.43 52.4995C104.44 52.2295 104.718 52.1509 105.087 52.0259C105.126 52.0127 105.164 51.9995 105.203 51.9863C105.194 51.9883 105.214 51.936 105.204 51.8794L103.68 47.9961L103.663 47.9419L103.142 45.6987C103.094 45.4893 103.224 45.2798 103.435 45.231C103.645 45.1821 103.854 45.313 103.903 45.5225L104.418 47.7378Z" fill="#482D1F" fill-opacity="1.000000" fill-rule="nonzero"/>
	<path id="Shadow" d="M90.4028 100.584C89.4531 96.9336 88.4392 93.1392 87.3608 89.2002C87.2756 88.8887 86.9534 88.7051 86.6414 88.7905C86.3291 88.8755 86.1453 89.1973 86.2307 89.5088C87.3076 93.4429 88.3203 97.2329 89.2686 100.878C89.3501 101.191 89.6699 101.378 89.9829 101.297C90.2961 101.216 90.4841 100.896 90.4028 100.584Z" fill="#482D1F" fill-opacity="1.000000" fill-rule="nonzero"/>
</svg>
