<svg width="350.000000" height="180.000000" viewBox="0 0 350 180" fill="none" xmlns="http://www.w3.org/2000/svg" xmlns:xlink="http://www.w3.org/1999/xlink">
	<desc>
			Created with Pixso.
	</desc>
	<defs/>
	<rect id="Прямоугольник 1" rx="12.000000" width="350.000000" height="180.000000" fill="#B7DFFF" fill-opacity="1.000000"/>
	<path id="NEWS" d="M242.79 80.82L238.7 80.82C238.29 77.37 235.08 75.35 230.86 75.35C226.22 75.35 223.15 77.82 223.15 81.16C223.15 84.91 227.31 86.26 229.9 86.94L233.45 87.91C237.06 88.85 243.27 90.98 243.27 97.51C243.27 103.18 238.7 107.6 230.65 107.6C223.15 107.6 218.52 103.73 218.11 98L222.47 98C222.81 101.94 226.49 103.8 230.65 103.8C235.49 103.8 239.18 101.27 239.18 97.44C239.18 93.98 235.9 92.67 232.22 91.66L227.93 90.42C222.47 88.85 219.06 86.07 219.06 81.35C219.06 75.5 224.31 71.6 230.99 71.6C237.74 71.6 242.6 75.54 242.79 80.82ZM132.75 72.08L136.91 72.08L136.91 107L132.82 107L113.8 79.58L113.44 79.58L113.44 107L109.23 107L109.23 72.08L113.32 72.08L132.41 99.57L132.75 99.57L132.75 72.08ZM166.7 107L145.36 107L145.36 72.08L166.43 72.08L166.43 75.83L149.58 75.83L149.58 87.64L165.33 87.64L165.33 91.39L149.58 91.39L149.58 103.25L166.7 103.25L166.7 107ZM184.77 107L180.41 107L170.86 72.08L175.16 72.08L182.45 100.52L182.79 100.52L190.23 72.08L195 72.08L202.43 100.52L202.77 100.52L210.07 72.08L214.36 72.08L204.82 107L200.45 107L192.75 79.17L192.48 79.17L184.77 107Z" fill="#000000" fill-opacity="1.000000" fill-rule="evenodd"/>
</svg>
