<svg width="20.026367" height="20.009766" viewBox="0 0 20.0264 20.0098" fill="none" xmlns="http://www.w3.org/2000/svg" xmlns:xlink="http://www.w3.org/1999/xlink">
	<desc>
			Created with Pixso.
	</desc>
	<defs/>
	<path id="icon" d="M14.8701 12.6562L19.5576 17.3438C20.1436 17.9688 20.1436 18.9453 19.5576 19.5703C18.9326 20.1562 17.9561 20.1562 17.3311 19.5703L12.6826 14.8828C11.0811 15.9375 9.12793 16.4844 7.01855 16.2109C3.4248 15.7031 0.53418 12.7734 0.0654297 9.21875C-0.598633 3.90625 3.89355 -0.585938 9.20605 0.078125C12.7607 0.546875 15.6904 3.4375 16.1982 7.03125C16.4717 9.14062 15.9248 11.0938 14.8701 12.6562ZM8.1123 3.125C5.33887 3.125 3.1123 5.39062 3.1123 8.125C3.1123 10.8984 5.33887 13.125 8.1123 13.125C10.8467 13.125 13.1123 10.8984 13.1123 8.125C13.1123 5.39062 10.8467 3.125 8.1123 3.125Z" fill="#3E3232" fill-opacity="1.000000" fill-rule="evenodd"/>
</svg>
